<mxfile host="app.diagrams.net" agent="Mozilla/5.0 (Macintosh; Intel Mac OS X 10_15_7) AppleWebKit/537.36 (KHTML, like Gecko) Chrome/137.0.0.0 Safari/537.36 Edg/137.0.0.0" version="27.1.6">
  <diagram name="第 1 页" id="jSbDKvpbUCFAO9ZqHGPm">
    <mxGraphModel dx="994" dy="561" grid="1" gridSize="10" guides="1" tooltips="1" connect="1" arrows="1" fold="1" page="1" pageScale="1" pageWidth="1169" pageHeight="827" math="0" shadow="0">
      <root>
        <mxCell id="0" />
        <mxCell id="1" parent="0" />
        <mxCell id="OlNXJpAAPlKyJvy7JP_H-1" value="" style="rounded=0;whiteSpace=wrap;html=1;dashed=1;dashPattern=8 8;" vertex="1" parent="1">
          <mxGeometry x="395" y="90" width="150" height="460" as="geometry" />
        </mxCell>
        <mxCell id="OlNXJpAAPlKyJvy7JP_H-2" value="" style="rounded=0;whiteSpace=wrap;html=1;dashed=1;dashPattern=8 8;" vertex="1" parent="1">
          <mxGeometry x="160" y="90" width="150" height="460" as="geometry" />
        </mxCell>
        <mxCell id="OlNXJpAAPlKyJvy7JP_H-3" style="edgeStyle=orthogonalEdgeStyle;rounded=0;orthogonalLoop=1;jettySize=auto;html=1;exitX=0.5;exitY=1;exitDx=0;exitDy=0;" edge="1" parent="1" source="OlNXJpAAPlKyJvy7JP_H-5" target="OlNXJpAAPlKyJvy7JP_H-8">
          <mxGeometry relative="1" as="geometry" />
        </mxCell>
        <mxCell id="OlNXJpAAPlKyJvy7JP_H-4" value="调用" style="edgeLabel;html=1;align=center;verticalAlign=middle;resizable=0;points=[];" vertex="1" connectable="0" parent="OlNXJpAAPlKyJvy7JP_H-3">
          <mxGeometry x="-0.2261" relative="1" as="geometry">
            <mxPoint as="offset" />
          </mxGeometry>
        </mxCell>
        <mxCell id="OlNXJpAAPlKyJvy7JP_H-5" value="&lt;span style=&quot;background-color: transparent; color: light-dark(rgb(0, 0, 0), rgb(255, 255, 255));&quot;&gt;controller-a&lt;/span&gt;" style="rounded=1;whiteSpace=wrap;html=1;" vertex="1" parent="1">
          <mxGeometry x="175" y="160" width="120" height="60" as="geometry" />
        </mxCell>
        <mxCell id="OlNXJpAAPlKyJvy7JP_H-6" style="edgeStyle=orthogonalEdgeStyle;rounded=0;orthogonalLoop=1;jettySize=auto;html=1;exitX=0.5;exitY=1;exitDx=0;exitDy=0;" edge="1" parent="1" source="OlNXJpAAPlKyJvy7JP_H-8" target="OlNXJpAAPlKyJvy7JP_H-11">
          <mxGeometry relative="1" as="geometry" />
        </mxCell>
        <mxCell id="OlNXJpAAPlKyJvy7JP_H-7" value="调用" style="edgeLabel;html=1;align=center;verticalAlign=middle;resizable=0;points=[];" vertex="1" connectable="0" parent="OlNXJpAAPlKyJvy7JP_H-6">
          <mxGeometry x="-0.2261" y="-1" relative="1" as="geometry">
            <mxPoint as="offset" />
          </mxGeometry>
        </mxCell>
        <mxCell id="OlNXJpAAPlKyJvy7JP_H-8" value="&lt;span style=&quot;background-color: transparent; color: light-dark(rgb(0, 0, 0), rgb(255, 255, 255));&quot;&gt;service-&lt;/span&gt;&lt;span style=&quot;background-color: transparent; color: light-dark(rgb(0, 0, 0), rgb(255, 255, 255));&quot;&gt;interface-a&lt;/span&gt;" style="rounded=1;whiteSpace=wrap;html=1;" vertex="1" parent="1">
          <mxGeometry x="175" y="260" width="120" height="60" as="geometry" />
        </mxCell>
        <mxCell id="OlNXJpAAPlKyJvy7JP_H-9" style="edgeStyle=orthogonalEdgeStyle;rounded=0;orthogonalLoop=1;jettySize=auto;html=1;exitX=0.5;exitY=1;exitDx=0;exitDy=0;entryX=0;entryY=0.5;entryDx=0;entryDy=0;" edge="1" parent="1" source="OlNXJpAAPlKyJvy7JP_H-11" target="OlNXJpAAPlKyJvy7JP_H-13">
          <mxGeometry relative="1" as="geometry" />
        </mxCell>
        <mxCell id="OlNXJpAAPlKyJvy7JP_H-10" value="调用" style="edgeLabel;html=1;align=center;verticalAlign=middle;resizable=0;points=[];" vertex="1" connectable="0" parent="OlNXJpAAPlKyJvy7JP_H-9">
          <mxGeometry x="-0.1391" y="1" relative="1" as="geometry">
            <mxPoint as="offset" />
          </mxGeometry>
        </mxCell>
        <mxCell id="OlNXJpAAPlKyJvy7JP_H-11" value="&lt;span style=&quot;background-color: transparent; color: light-dark(rgb(0, 0, 0), rgb(255, 255, 255));&quot;&gt;service-impl-a&lt;/span&gt;" style="rounded=1;whiteSpace=wrap;html=1;" vertex="1" parent="1">
          <mxGeometry x="175" y="360" width="120" height="60" as="geometry" />
        </mxCell>
        <mxCell id="OlNXJpAAPlKyJvy7JP_H-12" value="&lt;b&gt;&lt;font style=&quot;font-size: 14px;&quot;&gt;module-a-core&lt;/font&gt;&lt;/b&gt;" style="text;html=1;align=center;verticalAlign=middle;whiteSpace=wrap;rounded=0;" vertex="1" parent="1">
          <mxGeometry x="168.75" y="90" width="132.5" height="30" as="geometry" />
        </mxCell>
        <mxCell id="OlNXJpAAPlKyJvy7JP_H-13" value="&lt;span style=&quot;background-color: transparent; color: light-dark(rgb(0, 0, 0), rgb(255, 255, 255));&quot;&gt;dao-a&lt;/span&gt;" style="rounded=1;whiteSpace=wrap;html=1;" vertex="1" parent="1">
          <mxGeometry x="410" y="450" width="120" height="60" as="geometry" />
        </mxCell>
        <mxCell id="OlNXJpAAPlKyJvy7JP_H-14" value="&lt;b&gt;&lt;font style=&quot;font-size: 14px;&quot;&gt;module-a-dao&lt;/font&gt;&lt;/b&gt;" style="text;html=1;align=center;verticalAlign=middle;whiteSpace=wrap;rounded=0;" vertex="1" parent="1">
          <mxGeometry x="403.75" y="90" width="132.5" height="30" as="geometry" />
        </mxCell>
      </root>
    </mxGraphModel>
  </diagram>
</mxfile>
